<?xml version="1.0" standalone="no"?>
<!DOCTYPE svg PUBLIC "-//W3C//DTD SVG 20010904//EN"
 "http://www.w3.org/TR/2001/REC-SVG-20010904/DTD/svg10.dtd">
<svg version="1.0" xmlns="http://www.w3.org/2000/svg"
 width="674.000000pt" height="862.000000pt" viewBox="0 0 674.000000 862.000000"
 preserveAspectRatio="xMidYMid meet">

<g transform="translate(0.000000,862.000000) scale(0.100000,-0.100000)"
fill="#000000" stroke="none">
<path d="M6692 6130 c0 -14 2 -19 5 -12 2 6 2 18 0 25 -3 6 -5 1 -5 -13z"/>
<path d="M5318 6093 c5 -21 7 -23 10 -9 2 10 0 22 -6 28 -6 6 -7 0 -4 -19z"/>
<path d="M4661 6094 c0 -11 3 -14 6 -6 3 7 2 16 -1 19 -3 4 -6 -2 -5 -13z"/>
<path d="M4620 6046 c0 -9 5 -16 10 -16 6 0 10 4 10 9 0 6 -4 13 -10 16 -5 3
-10 -1 -10 -9z"/>
<path d="M4610 5916 c0 -18 -7 -53 -16 -77 -8 -24 -13 -57 -10 -74 3 -17 2
-24 -2 -18 -5 9 -16 -3 -33 -37 -13 -27 -27 -50 -31 -50 -5 0 -8 -8 -8 -17 0
-30 -172 -173 -209 -173 -5 0 -16 -7 -24 -14 -8 -8 -34 -17 -58 -21 -24 -3
-62 -10 -84 -15 -24 -6 -425 -10 -1020 -10 -598 0 -1005 -4 -1045 -10 -118
-18 -222 -46 -341 -91 -42 -16 -81 -29 -87 -29 -5 0 -12 -3 -14 -7 -2 -5 -37
-26 -78 -47 -273 -142 -536 -410 -676 -691 -59 -119 -113 -269 -129 -360 -4
-22 -10 -44 -13 -50 -9 -14 -10 -23 -21 -175 -28 -391 57 -723 263 -1031 150
-224 355 -406 617 -547 118 -64 361 -139 502 -156 27 -3 486 -6 1022 -6 535 0
986 -4 1002 -9 15 -5 48 -15 73 -22 108 -31 224 -138 256 -237 10 -31 22 -62
26 -68 5 -7 9 -36 9 -65 0 -242 18 -862 26 -894 42 -167 72 -245 136 -349 60
-98 93 -141 162 -210 162 -165 308 -244 565 -307 84 -21 348 -18 425 5 33 10
83 24 110 32 137 38 376 195 466 305 146 180 232 369 270 594 19 112 20 948 1
1090 -32 237 -87 439 -179 653 -41 97 -128 269 -148 292 -7 8 -21 30 -31 49
-11 18 -24 42 -30 53 -7 11 -52 72 -102 137 -108 139 -335 367 -447 450 -65
47 -83 66 -93 97 -10 34 -9 41 10 61 11 12 39 35 62 50 62 42 223 183 291 255
190 203 339 409 448 623 54 107 97 199 97 209 0 5 6 22 14 39 18 41 59 168 59
185 0 6 3 12 7 12 15 0 71 283 64 319 -5 21 -3 31 6 31 7 0 10 7 6 16 -4 9 -2
22 3 28 7 8 7 54 2 127 l-8 114 -2 -82 -1 -83 -339 0 c-262 0 -340 -3 -344
-12 -3 -9 -11 -6 -25 10 l-20 23 5 -43 c3 -32 2 -39 -6 -28 -9 12 -11 10 -11
-12 0 -15 -5 -39 -11 -55 -6 -15 -12 -41 -15 -58 -9 -74 -15 -97 -29 -118 -8
-13 -12 -26 -9 -30 4 -4 0 -17 -9 -31 -9 -13 -22 -45 -28 -71 -7 -26 -18 -49
-25 -52 -8 -3 -14 -12 -14 -19 0 -29 -131 -265 -151 -272 -5 -2 -9 -9 -9 -15
0 -6 -18 -32 -40 -58 -22 -26 -40 -51 -40 -55 0 -9 -6 -16 -127 -136 -131
-130 -142 -140 -188 -173 -22 -16 -44 -34 -50 -41 -12 -13 -143 -99 -195 -127
-19 -10 -54 -30 -77 -43 -23 -13 -47 -24 -53 -24 -6 0 -43 -15 -83 -34 -86
-40 -192 -76 -224 -76 -13 0 -31 -4 -41 -9 -9 -5 -69 -19 -132 -30 -111 -20
-147 -21 -1061 -21 -1051 0 -1079 -1 -1165 -56 -105 -67 -140 -136 -132 -261
6 -86 37 -141 110 -197 90 -69 50 -67 1169 -65 554 1 1013 -2 1020 -7 7 -4 52
-13 99 -20 47 -7 101 -17 120 -23 19 -5 56 -16 83 -22 26 -7 47 -16 47 -21 0
-4 9 -8 21 -8 21 0 57 -14 142 -56 27 -13 55 -24 63 -24 8 0 14 -3 14 -8 0 -4
24 -18 53 -32 82 -38 281 -185 384 -284 91 -87 192 -211 267 -329 38 -59 126
-226 126 -239 0 -4 11 -31 24 -60 13 -29 31 -75 39 -103 57 -192 60 -217 64
-750 4 -520 6 -494 -41 -594 -16 -36 -68 -86 -123 -118 -43 -25 -57 -28 -133
-28 -75 1 -92 4 -146 32 -76 40 -128 102 -157 187 -6 18 -13 223 -17 496 -8
499 -7 483 -67 660 -54 159 -148 305 -283 440 -91 92 -111 109 -180 155 -130
86 -271 149 -400 179 -36 8 -78 18 -95 22 -16 4 -501 10 -1076 13 -744 4
-1050 9 -1060 17 -8 6 -31 14 -51 17 -47 7 -183 75 -249 123 -119 87 -234 244
-283 385 -29 85 -56 238 -56 320 0 61 22 185 46 259 44 132 149 275 277 378
71 56 247 142 291 142 12 0 28 6 34 13 10 9 231 13 1025 14 1017 3 1059 4
1187 39 285 79 466 180 645 359 55 55 107 109 115 120 63 84 90 128 84 137 -4
6 -3 8 4 4 6 -3 29 30 56 83 25 50 46 92 46 95 0 2 -8 7 -17 9 -15 4 -15 6 4
12 12 4 24 15 27 24 5 15 18 83 21 106 7 45 19 75 26 63 5 -7 9 -8 9 -3 0 6
-5 17 -10 25 -6 10 -10 11 -10 3 0 -7 -9 -13 -20 -13 -18 0 -20 7 -20 60 0 33
-4 60 -10 60 -6 0 -10 -27 -10 -60 0 -33 -4 -60 -10 -60 -5 0 -10 18 -10 40
l0 40 -120 0 -120 0 0 40 0 40 -120 0 c-73 0 -120 4 -120 10 0 15 -77 12 -83
-2 -4 -10 -6 -10 -6 0 -1 6 -11 12 -22 12 -19 0 -21 4 -15 30 3 17 1 30 -4 30
-6 0 -10 -15 -10 -34z m2067 -238 c-3 -7 -5 -2 -5 12 0 14 2 19 5 13 2 -7 2
-19 0 -25z m-735 -100 c-2 -29 -9 -57 -14 -63 -10 -10 -3 71 9 101 9 24 10 16
5 -38z m-1462 -18 c0 -5 -4 -10 -10 -10 -5 0 -10 5 -10 10 0 6 5 10 10 10 6 0
10 -4 10 -10z m1445 -80 c3 -5 1 -10 -4 -10 -6 0 -11 5 -11 10 0 6 2 10 4 10
3 0 8 -4 11 -10z m-744 -113 c-10 -9 -11 -8 -5 6 3 10 9 15 12 12 3 -3 0 -11
-7 -18z"/>
<path d="M4640 5940 c0 -5 5 -10 10 -10 6 0 10 5 10 10 0 6 -4 10 -10 10 -5 0
-10 -4 -10 -10z"/>
<path d="M6681 5934 c0 -11 3 -14 6 -6 3 7 2 16 -1 19 -3 4 -6 -2 -5 -13z"/>
<path d="M6690 5885 c0 -8 4 -15 10 -15 5 0 7 7 4 15 -4 8 -8 15 -10 15 -2 0
-4 -7 -4 -15z"/>
<path d="M5335 5860 c3 -5 8 -10 11 -10 2 0 4 5 4 10 0 6 -5 10 -11 10 -5 0
-7 -4 -4 -10z"/>
<path d="M5313 5798 c0 -24 2 -35 5 -25 2 9 7 17 11 17 5 0 6 11 3 25 -7 40
-19 29 -19 -17z"/>
<path d="M6693 5795 c0 -22 2 -30 4 -17 2 12 2 30 0 40 -3 9 -5 -1 -4 -23z"/>
<path d="M5970 5740 c0 -16 5 -30 10 -30 6 0 10 14 10 30 0 17 -4 30 -10 30
-5 0 -10 -13 -10 -30z"/>
</g>
</svg>
